<?xml version="1.0" encoding="UTF-8"?>
<svg width="99px" height="100px" viewBox="0 0 99 100" version="1.1" xmlns="http://www.w3.org/2000/svg" xmlns:xlink="http://www.w3.org/1999/xlink">
    <!-- Generator: Sketch 52.1 (67048) - http://www.bohemiancoding.com/sketch -->
    <title>Design strategy icon</title>
    <desc>Created with Sketch.</desc>
    <g id="About" stroke="none" stroke-width="1" fill="none" fill-rule="evenodd">
        <g id="About-Desktop-HD" transform="translate(-157.000000, -1444.000000)">
            <g id="WHAT-DO-I-DO" transform="translate(0.000000, 860.000000)">
                <g id="Design-strategy" transform="translate(58.000000, 584.000000)">
                    <g id="Design-strategy-icon" transform="translate(99.000000, 0.000000)">
                        <g id="expert-review-icon" fill="#759BBE">
                            <ellipse id="Oval" cx="49.3366501" cy="49.6974587" rx="49.3366501" ry="49.6974587"></ellipse>
                        </g>
                        <path d="M75.7711443,70.593393 L28.3677015,70.593393 L36.0789801,55.1386219 L44.0763184,60.3403433 C44.5847463,60.6711343 45.2233184,60.7307761 45.7834726,60.4984677 C46.3443632,60.2668955 46.7541244,59.7737463 46.8807711,59.1804577 L50.0049701,44.5023184 L58.7912736,48.9957015 C59.5340348,49.3752736 60.4393383,49.2084975 60.9972836,48.5879652 L68.3109502,40.4617711 L68.5410498,42.9230995 C68.6301443,43.8773682 69.4325473,44.5928856 70.3717214,44.5928856 C70.4291542,44.5928856 70.4867711,44.5899403 70.5449403,44.5849701 C71.5573781,44.4899851 72.3016119,43.5933333 72.2068109,42.5808955 L71.5538806,35.5858706 C71.4588955,34.5741692 70.5629801,33.8299353 69.549806,33.9249204 L62.5555174,34.5771144 C61.5430796,34.6719154 60.7988458,35.5693035 60.8938308,36.581005 C60.9886318,37.5934428 61.8832587,38.3376766 62.8977214,38.2428756 L65.5806816,37.9925274 L59.2076617,45.0731493 L49.5427463,40.1304279 C49.0328458,39.869403 48.4303532,39.8614876 47.91401,40.1074179 C47.396194,40.3533483 47.023801,40.8256965 46.9045174,41.3865871 L43.8375672,55.7930249 L36.3565721,50.927801 C35.9164378,50.6415572 35.375796,50.5566965 34.8695771,50.6947562 C34.3633582,50.8320796 33.939791,51.1794378 33.70601,51.6490249 L26.0696517,66.9528507 L26.0696517,27.2139303 C26.0696517,26.1970746 25.2455274,25.3731343 24.2288557,25.3731343 C23.2121841,25.3731343 22.3880597,26.1970746 22.3880597,27.2139303 L22.3880597,72.4341891 C22.3880597,73.4501244 23.2121841,74.2749851 24.2288557,74.2749851 L75.7711443,74.2749851 C76.7878159,74.2749851 77.6119403,73.4501244 77.6119403,72.4341891 C77.6119403,71.4173333 76.7878159,70.593393 75.7711443,70.593393 Z" id="design-strategy-icon" fill="#FFFFFF"></path>
                    </g>
                </g>
            </g>
        </g>
    </g>
</svg>