<?xml version="1.0" encoding="UTF-8"?>
<svg width="85px" height="85px" viewBox="0 0 85 85" version="1.1" xmlns="http://www.w3.org/2000/svg" xmlns:xlink="http://www.w3.org/1999/xlink">
    <!-- Generator: Sketch 46.2 (44496) - http://www.bohemiancoding.com/sketch -->
    <title>expert review icon@3x</title>
    <desc>Created with Sketch.</desc>
    <defs></defs>
    <g id="Page-1" stroke="none" stroke-width="1" fill="none" fill-rule="evenodd">
        <g id="Desktop-HD" transform="translate(-252.000000, -796.000000)">
            <g id="WHAT-DO-I-DO" transform="translate(0.000000, 688.000000)">
                <g id="Expert-review" transform="translate(141.000000, 108.000000)">
                    <g id="expert-review-icon" transform="translate(111.000000, 0.000000)">
                        <circle id="Oval" fill="#759BBE" cx="42.5" cy="42.5" r="42.5"></circle>
                        <path d="M66.2546183,60.8309756 L66.2546183,63.750228 L19.55,63.750228 L19.55,17.0456098 L22.4692524,17.0456098 L22.4692524,60.8309756 L66.2546183,60.8309756 Z M40.4307165,33.2571415 L52.354703,36.2360287 L56.482272,29.3602439 L60.222386,31.6064104 L60.4161134,19.9648622 L50.236814,25.6147707 L53.976928,27.8610512 L50.9637195,32.8838256 L39.535397,30.024322 L27.2751524,42.2851366 L29.339222,44.348636 L40.4307165,33.2571415 Z M37.0643744,57.9117232 L42.9023091,57.9117232 L42.9023091,36.8832311 L41.326036,36.4893909 L37.0643744,40.7510524 L37.0643744,57.9117232 Z M28.3071872,47.4447402 L28.3071872,57.9117232 L34.145122,57.9117232 L34.145122,43.6703049 L29.3387659,48.476661 L28.3071872,47.4447402 Z M54.5781787,38.2087646 L54.5781787,57.9117232 L60.4161134,57.9117232 L60.4161134,35.1269134 L57.483178,33.3684293 L54.5781787,38.2087646 Z M51.6594963,57.9117232 L51.6594963,39.0723854 L45.8209915,37.6127591 L45.8209915,57.9117232 L51.6594963,57.9117232 Z" id="expert-review" fill="#FFFFFF"></path>
                    </g>
                </g>
            </g>
        </g>
    </g>
</svg>