<?xml version="1.0" encoding="UTF-8"?>
<svg width="99px" height="100px" viewBox="0 0 99 100" version="1.1" xmlns="http://www.w3.org/2000/svg" xmlns:xlink="http://www.w3.org/1999/xlink">
    <!-- Generator: Sketch 52.1 (67048) - http://www.bohemiancoding.com/sketch -->
    <title>expert review icon</title>
    <desc>Created with Sketch.</desc>
    <g id="About" stroke="none" stroke-width="1" fill="none" fill-rule="evenodd">
        <g id="About-Desktop-HD" transform="translate(-670.000000, -1444.000000)">
            <g id="WHAT-DO-I-DO" transform="translate(0.000000, 860.000000)">
                <g id="Expert-review" transform="translate(568.000000, 584.000000)">
                    <g id="expert-review-icon" transform="translate(102.000000, 0.000000)">
                        <g transform="translate(0.392817, 0.000000)" fill="#759BBE" id="Oval">
                            <ellipse cx="49.1021324" cy="49.6974587" rx="49.1021324" ry="49.6974587"></ellipse>
                        </g>
                        <g id="Expert-review-icon" transform="translate(22.756982, 20.895522)" fill="#FFFFFF">
                            <path d="M50.5143163,0 L2.96161953,0 C1.32861361,0 0,1.3310907 0,2.96714122 L0,53.7492767 C0,55.3853272 1.32861361,56.7164179 2.96161953,56.7164179 L50.5143163,56.7164179 C52.1473222,56.7164179 53.4759358,55.3853272 53.4759358,53.7492767 L53.4759358,2.96714122 C53.4759358,1.3310907 52.1473222,0 50.5143163,0 Z M51.7340629,53.7492767 C51.7340629,54.4233295 51.1862438,54.9712974 50.5143163,54.9712974 L2.96161953,54.9712974 C2.28882109,54.9712974 1.74187298,54.4233295 1.74187298,53.7492767 L1.74187298,2.96714122 C1.74187298,2.2930884 2.28882109,1.74512055 2.96161953,1.74512055 L50.5143163,1.74512055 C51.1862438,1.74512055 51.7340629,2.2930884 51.7340629,2.96714122 L51.7340629,53.7492767 Z" id="Fill-1"></path>
                            <path d="M13.5452657,10.7799179 C13.0023706,10.0133531 12.1233767,9.51182636 11.1295691,9.51182636 L7.44126316,9.51182636 C5.79479601,9.51182636 4.45632799,10.8835502 4.45632799,12.5695432 L4.45632799,16.3463922 C4.45632799,18.031486 5.79479601,19.4029851 7.44126316,19.4029851 L11.1295691,19.4029851 C12.7760363,19.4029851 14.1156019,18.031486 14.1156019,16.3463922 L14.1156019,12.5695432 C14.1156019,12.4737788 14.1094551,12.3789136 14.1008935,12.2849476 L16.3398693,9.99222195 L15.3271822,8.95522388 L13.5452657,10.7799179 Z M12.3593703,16.3463922 C12.3593703,17.0401221 11.8079136,17.6045926 11.1295691,17.6045926 L7.44126316,17.6045926 C6.76379681,17.6045926 6.21255961,17.0401221 6.21255961,16.3463922 L6.21255961,12.5695432 C6.21255961,11.8749141 6.76379681,11.3102189 7.44126316,11.3102189 L11.1295691,11.3102189 C11.6415106,11.3102189 12.0814466,11.6334799 12.265851,12.0900468 L9.58693915,14.8332697 L7.77999634,12.9840727 L6.78706688,14.0008388 L9.17093178,16.4419318 L9.17356613,16.439459 L9.60823346,16.8854604 L12.3593703,14.0694025 L12.3593703,16.3463922 Z" id="Fill-3"></path>
                            <path d="M15.3271822,22.3880597 L13.5452657,24.2129392 C13.0023706,23.4461661 12.1233767,22.944875 11.1295691,22.944875 L7.44126316,22.944875 C5.79479601,22.944875 4.45632799,24.3165694 4.45632799,26.002526 L4.45632799,29.7781698 C4.45632799,31.4641265 5.79479601,32.8358209 7.44126316,32.8358209 L11.1295691,32.8358209 C12.7760363,32.8358209 14.1156019,31.4641265 14.1156019,29.7781698 L14.1156019,26.002526 C14.1156019,25.9058645 14.1094551,25.8119005 14.1008935,25.7179366 L16.3398693,23.4252603 L15.3271822,22.3880597 Z M12.3593703,29.7781698 C12.3593703,30.472784 11.8079136,31.0374671 11.1295691,31.0374671 L7.44126316,31.0374671 C6.76379681,31.0374671 6.21255961,30.472784 6.21255961,29.7781698 L6.21255961,26.002526 C6.21255961,25.3079119 6.76379681,24.7432288 7.44126316,24.7432288 L11.1295691,24.7432288 C11.6415106,24.7432288 12.0814466,25.0664829 12.265851,25.52304 L9.58693915,28.2662039 L7.77999634,26.4159226 L6.78706688,27.4337909 L9.17093178,29.8748314 L9.17356613,29.8721338 L9.60823346,30.3183504 L12.3593703,27.5021283 L12.3593703,29.7781698 Z" id="Fill-4"></path>
                            <path d="M15.3271822,35.8208955 L13.5452657,37.645775 C13.0023706,36.8790019 12.1233767,36.3777108 11.1295691,36.3777108 L7.44126316,36.3777108 C5.79479601,36.3777108 4.45632799,37.7494052 4.45632799,39.4353619 L4.45632799,43.2110057 C4.45632799,44.8969624 5.79479601,46.2686567 7.44126316,46.2686567 L11.1295691,46.2686567 C12.7760363,46.2686567 14.1156019,44.8969624 14.1156019,43.2110057 L14.1156019,39.4353619 C14.1156019,39.3387003 14.1094551,39.2447364 14.1008935,39.1507724 L16.3398693,36.8580961 L15.3271822,35.8208955 Z M12.3593703,43.2110057 C12.3593703,43.9056198 11.8079136,44.4703029 11.1295691,44.4703029 L7.44126316,44.4703029 C6.76379681,44.4703029 6.21255961,43.9056198 6.21255961,43.2110057 L6.21255961,39.4353619 C6.21255961,38.7407477 6.76379681,38.1760646 7.44126316,38.1760646 L11.1295691,38.1760646 C11.6415106,38.1760646 12.0814466,38.4993187 12.265851,38.9558758 L9.58693915,41.6990397 L7.77999634,39.8487584 L6.78706688,40.8666267 L9.17093178,43.3076672 L9.17356613,43.3049697 L9.60823346,43.7511862 L12.3593703,40.9349641 L12.3593703,43.2110057 Z" id="Fill-4-Copy"></path>
                            <polygon id="Fill-5" points="17.8253119 11.9402985 44.5632799 11.9402985 44.5632799 10.4477612 17.8253119 10.4477612"></polygon>
                            <polygon id="Fill-6" points="17.8253119 14.9253731 31.1942959 14.9253731 31.1942959 13.4328358 17.8253119 13.4328358"></polygon>
                            <polygon id="Fill-7" points="17.8253119 26.8656716 44.5632799 26.8656716 44.5632799 25.3731343 17.8253119 25.3731343"></polygon>
                            <polygon id="Fill-8" points="17.8253119 31.3432836 40.1069519 31.3432836 40.1069519 29.8507463 17.8253119 29.8507463"></polygon>
                            <polygon id="Fill-9" points="17.8253119 41.7910448 43.0778372 41.7910448 43.0778372 40.2985075 17.8253119 40.2985075"></polygon>
                        </g>
                    </g>
                </g>
            </g>
        </g>
    </g>
</svg>