<?xml version="1.0" encoding="UTF-8"?>
<svg width="30px" height="30px" viewBox="0 0 30 30" version="1.1" xmlns="http://www.w3.org/2000/svg" xmlns:xlink="http://www.w3.org/1999/xlink">
    <!-- Generator: Sketch 52.5 (67469) - http://www.bohemiancoding.com/sketch -->
    <title>instagram-logo</title>
    <desc>Created with Sketch.</desc>
    <g id="Contact" stroke="none" stroke-width="1" fill="none" fill-rule="evenodd">
        <g id="Contact-Desktop-HD" transform="translate(-735.000000, -521.000000)" fill="#0C2645">
            <g id="CONTACT" transform="translate(172.000000, 186.000000)">
                <g id="icons" transform="translate(503.000000, 335.000000)">
                    <g id="instagram-logo" transform="translate(60.000000, 0.000000)">
                        <path d="M14.89425,17.6443902 C16.53825,17.6443902 17.877,16.3412195 17.877,14.735122 C17.877,14.1029268 17.66625,13.517561 17.3145,13.0397561 C16.77225,12.3080488 15.891,11.8280488 14.89425,11.8280488 C13.90125,11.8280488 13.01925,12.305122 12.47775,13.0397561 C12.123,13.517561 11.91525,14.1029268 11.91225,14.735122 C11.91225,16.3412195 13.251,17.6443902 14.89425,17.6443902 Z" id="Fill-1"></path>
                        <g id="Group-5">
                            <polygon id="Fill-2" points="21.40725 11.1760976 21.40725 8.37512195 21.03225 8.37512195 18.53325 8.38390244 18.54525 11.184878"></polygon>
                            <path d="M14.9981119,-2.70672373e-13 C6.72909901,-2.70672373e-13 0,6.72985424 0,14.9988672 C0,23.270901 6.72909901,30 14.9981119,30 C23.2701458,30 30,23.270901 30,14.9988672 C30,6.72985424 23.2701458,-2.70672373e-13 14.9981119,-2.70672373e-13 Z M23.5299449,13.2489993 L23.5299449,20.2348765 C23.5299449,22.0527151 22.0519598,23.5307001 20.2318556,23.5307001 L9.76512348,23.5307001 C7.94728495,23.5307001 6.4692999,22.0527151 6.4692999,20.2348765 L6.4692999,9.7681444 C6.4692999,7.94804018 7.94728495,6.47005513 9.76512348,6.47005513 L20.2318556,6.47005513 C22.0519598,6.47005513 23.5299449,7.94804018 23.5299449,9.7681444 L23.5299449,13.2489993 Z" id="Fill-4"></path>
                        </g>
                        <path d="M19.52925,14.735122 C19.52925,17.2273171 17.4525,19.2563415 14.89425,19.2563415 C12.33975,19.2563415 10.263,17.2273171 10.263,14.735122 C10.263,14.1373171 10.386,13.5629268 10.60275,13.0397561 L8.0745,13.0397561 L8.0745,19.8080488 C8.0745,20.6831707 8.8005,21.3892683 9.6975,21.3892683 L20.09175,21.3892683 C20.988,21.3892683 21.71475,20.6831707 21.71475,19.8080488 L21.71475,13.0397561 L19.1865,13.0397561 C19.40325,13.5629268 19.52925,14.1373171 19.52925,14.735122 Z" id="Fill-6"></path>
                    </g>
                </g>
            </g>
        </g>
    </g>
</svg>