<?xml version="1.0" encoding="UTF-8"?>
<svg width="85px" height="85px" viewBox="0 0 85 85" version="1.1" xmlns="http://www.w3.org/2000/svg" xmlns:xlink="http://www.w3.org/1999/xlink">
    <!-- Generator: Sketch 46.2 (44496) - http://www.bohemiancoding.com/sketch -->
    <title>Interaction design icon@3x</title>
    <desc>Created with Sketch.</desc>
    <defs></defs>
    <g id="Page-1" stroke="none" stroke-width="1" fill="none" fill-rule="evenodd">
        <g id="Desktop-HD" transform="translate(-477.000000, -1004.000000)">
            <g id="WHAT-DO-I-DO" transform="translate(0.000000, 688.000000)">
                <g id="Interaction-design" transform="translate(349.000000, 316.000000)">
                    <g id="Interaction-design-icon" transform="translate(128.000000, 0.000000)">
                        <circle id="Oval-Copy" fill="#759BBE" cx="42.5" cy="42.5" r="42.5"></circle>
                        <g id="interaction-design" transform="translate(25.000000, 19.000000)" fill="#FFFFFF">
                            <path d="M0.921317596,42.9588037 C0.689600205,42.9588037 0.5,43.1482796 0.5,43.3804276 L0.5,46.7328832 C0.5,46.9650312 0.689600205,47.154507 0.921317596,47.154507 L16.7589827,47.154507 C16.9907001,47.154507 17.1803003,46.9650312 17.1803003,46.7328832 L17.1803003,43.3804276 C17.1803003,43.1482796 16.9907001,42.9588037 16.7589827,42.9588037 L0.921317596,42.9588037 Z" id="Fill-1"></path>
                            <path d="M16.7589827,41.0484618 C16.9907001,41.0484618 17.1803003,40.858986 17.1803003,40.626838 L17.1803003,12.1654089 C17.1803003,11.9338435 17.0682307,11.5913014 16.9309491,11.4047383 L9.20587014,0.710493769 C9.06931719,0.523930685 8.61156604,0.523930685 8.47443015,0.710493769 L0.749351231,11.4047383 C0.61221534,11.5913014 0.5,11.9338435 0.5,12.1654089 L0.5,40.626838 C0.5,40.8584034 0.689600205,41.0484618 0.921317596,41.0484618 L16.7589827,41.0484618 Z M4.03288868,10.2919136 C4.16958737,10.1047679 4.39780714,9.80154829 4.5407724,9.61891745 C4.5407724,9.61891745 6.84963946,6.65211293 7.705245,5.55195872 C8.13516091,5.00057087 9.48830304,4.927169 9.91807322,5.47855685 C10.7879607,6.59691589 13.1401108,9.61891745 13.1401108,9.61891745 C13.2824932,9.80154829 13.5107129,10.1047679 13.6474116,10.2919136 C13.6474116,10.2919136 13.819378,10.5582866 13.9758965,10.8153388 C14.0362305,10.9137905 13.925181,11.1254034 13.4954108,11.1345787 C11.5143,11.174338 5.80501665,11.1731729 4.03230574,11.1310833 C3.69595119,11.1230732 3.60486731,10.9120428 3.66855316,10.8119891 C3.74652096,10.6884875 4.03288868,10.2919136 4.03288868,10.2919136 Z" id="Fill-3"></path>
                            <path d="M21.2404397,1.43207547 C20.9910917,1.43207547 20.7877358,1.64123757 20.7877358,1.89770495 L20.7877358,4.11508524 C20.7877358,4.37155262 20.9910917,4.58129694 21.2404397,4.58129694 L24.7098009,4.58129694 C24.9585828,4.58129694 25.1625047,4.7906046 25.1625047,5.04707198 L25.1625047,6.11253237 C25.1625047,6.36899975 24.9585828,6.57816186 24.7098009,6.57816186 L21.2404397,6.57816186 C20.9910917,6.57816186 20.7877358,6.78805173 20.7877358,7.04379134 L20.7877358,11.6299288 C20.7877358,11.885814 20.9910917,12.0955583 21.2404397,12.0955583 L27.3913528,12.0955583 C27.6407007,12.0955583 27.8440566,12.3048659 27.8440566,12.5613333 L27.8440566,13.6273759 C27.8440566,13.8832611 27.6407007,14.0930054 27.3913528,14.0930054 L21.2404397,14.0930054 C20.9910917,14.0930054 20.7877358,14.3023131 20.7877358,14.5586349 L20.7877358,19.1441901 C20.7877358,19.4006575 20.9910917,19.6098196 21.2404397,19.6098196 L24.7098009,19.6098196 C24.9585828,19.6098196 25.1625047,19.8197095 25.1625047,20.0761769 L25.1625047,21.1416373 C25.1625047,21.3975224 24.9585828,21.6072667 24.7098009,21.6072667 L21.2404397,21.6072667 C20.9910917,21.6072667 20.7877358,21.8171566 20.7877358,22.0728962 L20.7877358,26.6590337 C20.7877358,26.9149188 20.9910917,27.1246632 21.2404397,27.1246632 L27.3913528,27.1246632 C27.6407007,27.1246632 27.8440566,27.3339708 27.8440566,27.5904382 L27.8440566,28.6558986 C27.8440566,28.9117838 27.6407007,29.1215281 27.3913528,29.1215281 L21.2404397,29.1215281 C20.9910917,29.1215281 20.7877358,29.331418 20.7877358,29.5871576 L20.7877358,34.173295 C20.7877358,34.4291802 20.9910917,34.6389245 21.2404397,34.6389245 L24.7098009,34.6389245 C24.9585828,34.6389245 25.1625047,34.8488144 25.1625047,35.1046995 L25.1625047,36.1707422 C25.1625047,36.4266273 24.9585828,36.6363716 24.7098009,36.6363716 L21.2404397,36.6363716 C20.9910917,36.6363716 20.7877358,36.8456793 20.7877358,37.1020011 L20.7877358,41.6875564 C20.7877358,41.9440237 20.9910917,42.1531858 21.2404397,42.1531858 L27.3913528,42.1531858 C27.6407007,42.1531858 27.8440566,42.3630757 27.8440566,42.6189609 L27.8440566,43.6850035 C27.8440566,43.9408887 27.6407007,44.150633 27.3913528,44.150633 L21.2404397,44.150633 C20.9910917,44.150633 20.7877358,44.3599406 20.7877358,44.6162625 L20.7877358,46.8343705 C20.7877358,47.0901101 20.9910917,47.3 21.2404397,47.3 L34.4482396,47.3 C34.6975875,47.3 34.9009434,47.0901101 34.9009434,46.8343705 L34.9009434,1.89770495 C34.9009434,1.64123757 34.6975875,1.43207547 34.4482396,1.43207547 L21.2404397,1.43207547 Z" id="Fill-5"></path>
                        </g>
                    </g>
                </g>
            </g>
        </g>
    </g>
</svg>