<?xml version="1.0" encoding="UTF-8"?>
<svg width="30px" height="30px" viewBox="0 0 30 30" version="1.1" xmlns="http://www.w3.org/2000/svg" xmlns:xlink="http://www.w3.org/1999/xlink">
    <!-- Generator: Sketch 55 (78076) - https://sketchapp.com -->
    <title>medium</title>
    <desc>Created with Sketch.</desc>
    <g id="1-page-layout" stroke="none" stroke-width="1" fill="none" fill-rule="evenodd">
        <g id="1-Page-Mobile" transform="translate(-178.000000, -1383.000000)">
            <g id="Get-in-touch" transform="translate(0.000000, 1190.000000)">
                <g id="icons" transform="translate(113.000000, 193.000000)">
                    <g id="medium" transform="translate(65.000000, 0.000000)">
                        <circle id="Oval" fill="#0C2645" cx="15" cy="15" r="15"></circle>
                        <path d="M9.01587302,11.6519694 C9.03699422,11.4509572 8.95741374,11.2522789 8.8015873,11.11699 L7.21428571,9.27513228 L7.21428571,9 L12.1428571,9 L15.952381,17.047619 L19.3015874,9 L24,9 L24,9.27513228 L22.6428572,10.5285126 C22.5258565,10.6144185 22.4678183,10.7556108 22.4920635,10.8953557 L22.4920635,20.1046444 C22.4678183,20.2443893 22.5258565,20.3855815 22.6428572,20.4714874 L23.968254,21.7248678 L23.968254,22 L17.3015873,22 L17.3015873,21.7248678 L18.6746032,20.4409171 C18.8095238,20.3109935 18.8095238,20.2727807 18.8095238,20.0740741 L18.8095238,12.6302175 L14.9920635,21.9694297 L14.4761905,21.9694297 L10.031746,12.6302175 L10.031746,18.8894768 C9.99468987,19.1526336 10.0854247,19.417575 10.2777778,19.6078778 L12.0634921,21.6942975 L12.0634921,21.9694297 L7,21.9694297 L7,21.6942975 L8.78571429,19.6078778 C8.97666684,19.4172595 9.06211087,19.1505606 9.01587302,18.8894768 L9.01587302,11.6519694 Z" id="Shape" fill="#FFFFFF" fill-rule="nonzero"></path>
                    </g>
                </g>
            </g>
        </g>
    </g>
</svg>