<?xml version="1.0" encoding="UTF-8"?>
<svg width="23px" height="17px" viewBox="0 0 23 17" version="1.1" xmlns="http://www.w3.org/2000/svg" xmlns:xlink="http://www.w3.org/1999/xlink">
    <!-- Generator: Sketch 47 (45396) - http://www.bohemiancoding.com/sketch -->
    <title>menu@3x</title>
    <desc>Created with Sketch.</desc>
    <defs></defs>
    <g id="Page-1" stroke="none" stroke-width="1" fill="none" fill-rule="evenodd">
        <g id="Mobile" transform="translate(-287.000000, -12.000000)" fill="#0C2645">
            <g id="HEADER">
                <path d="M289.053496,16 L307.945931,16 C309.080298,16 310,15.1042825 310,13.9999441 C310,12.8952706 309.080298,12 307.945931,12 L289.053496,12 C287.919243,12 287,12.8952706 287,13.9999441 C287,15.1047294 287.919243,16 289.053496,16 Z M307.945931,18.5 L289.053496,18.5 C287.919243,18.5 287,19.3957175 287,20.5000559 C287,21.6047294 287.919243,22.5 289.053496,22.5 L307.945931,22.5 C309.080298,22.5 310,21.6047294 310,20.5000559 C310,19.3957175 309.080298,18.5 307.945931,18.5 Z M307.945931,25 L289.053496,25 C287.919243,25 287,25.8951838 287,27 C287,28.1043692 287.919243,29 289.053496,29 L307.945931,29 C309.080298,29 310,28.1043692 310,27 C310,25.8951838 309.080298,25 307.945931,25 Z" id="menu"></path>
            </g>
        </g>
    </g>
</svg>