<?xml version="1.0" encoding="UTF-8"?>
<svg width="85px" height="85px" viewBox="0 0 85 85" version="1.1" xmlns="http://www.w3.org/2000/svg" xmlns:xlink="http://www.w3.org/1999/xlink">
    <!-- Generator: Sketch 46.2 (44496) - http://www.bohemiancoding.com/sketch -->
    <title>Research icon@3x</title>
    <desc>Created with Sketch.</desc>
    <defs></defs>
    <g id="Page-1" stroke="none" stroke-width="1" fill="none" fill-rule="evenodd">
        <g id="Desktop-HD" transform="translate(-678.000000, -796.000000)">
            <g id="WHAT-DO-I-DO" transform="translate(0.000000, 688.000000)">
                <g id="Research" transform="translate(580.000000, 108.000000)">
                    <g id="Research-icon" transform="translate(98.000000, 0.000000)">
                        <circle id="Oval" fill="#759BBE" cx="42.5" cy="42.5" r="42.5"></circle>
                        <g id="search-icon" transform="translate(19.550000, 19.550000)" fill="#FFFFFF">
                            <path d="M44.2445392,38.2365713 L33.8066123,27.8241516 C32.251647,30.2370152 30.1943168,32.2894505 27.7754571,33.8406325 L38.2133841,44.2530522 C39.8794183,45.9150328 42.5810595,45.9150328 44.2445392,44.2530522 C45.9105735,42.5937307 45.9105735,39.898552 44.2445392,38.2365713 Z" id="Fill-1"></path>
                            <path d="M34.120271,17.1350675 C34.120271,7.73623445 26.481726,0.116274669 17.0604132,0.116274669 C7.63854505,0.116274669 0,7.73623445 0,17.1350675 C0,26.5334574 7.63854505,34.153528 17.0604132,34.153528 C26.481726,34.153528 34.120271,26.5334574 34.120271,17.1350675 Z M17.0604132,29.8989683 C10.0044248,29.8989683 4.26482563,24.1734449 4.26482563,17.1350675 C4.26482563,10.0963578 10.0044248,4.37072359 17.0604132,4.37072359 C24.1158462,4.37072359 29.8554454,10.0963578 29.8554454,17.1350675 C29.8554454,24.1734449 24.1158462,29.8989683 17.0604132,29.8989683 Z" id="Fill-3"></path>
                            <path d="M6.49305556,16.8819444 L9.46147516,16.8819444 C9.46147516,12.7903216 12.7902513,9.46139234 16.8819444,9.46139234 L16.8819444,6.49305556 C11.1539219,6.49305556 6.49305556,11.1539739 6.49305556,16.8819444 Z" id="Fill-5"></path>
                        </g>
                    </g>
                </g>
            </g>
        </g>
    </g>
</svg>