<?xml version="1.0" encoding="UTF-8"?>
<svg width="85px" height="85px" viewBox="0 0 85 85" version="1.1" xmlns="http://www.w3.org/2000/svg" xmlns:xlink="http://www.w3.org/1999/xlink">
    <!-- Generator: Sketch 46.2 (44496) - http://www.bohemiancoding.com/sketch -->
    <title>Training icon@3x</title>
    <desc>Created with Sketch.</desc>
    <defs></defs>
    <g id="Page-1" stroke="none" stroke-width="1" fill="none" fill-rule="evenodd">
        <g id="Desktop-HD" transform="translate(-878.000000, -1004.000000)">
            <g id="WHAT-DO-I-DO" transform="translate(0.000000, 688.000000)">
                <g id="Training" transform="translate(767.000000, 316.000000)">
                    <g id="Training-icon" transform="translate(111.000000, 0.000000)">
                        <circle id="Oval" fill="#759BBE" cx="42.5" cy="42.5" r="42.5"></circle>
                        <g id="training-icon" transform="translate(20.000000, 20.000000)" fill="#FFFFFF">
                            <path d="M45.1991964,2.48473264 L24.8075536,2.48473264 L24.8075536,1.53673133 C24.8075536,0.730803718 24.1485357,0.0778485984 23.3359107,0.0778485984 C22.5225,0.0778485984 21.8634821,0.730803718 21.8634821,1.53673133 L21.8634821,2.48473264 L1.47242857,2.48473264 C0.659017857,2.48473264 0,3.13788238 0,3.94361537 L0,8.75757808 C0,9.56253258 0.659017857,10.2164608 1.47242857,10.2164608 L2.42923214,10.2164608 L2.42923214,35.2336918 C2.42923214,36.0386463 3.08844643,36.6925745 3.90166071,36.6925745 L20.3910536,36.6925745 L14.8702321,43.9862097 C14.3823036,44.6302122 14.5143036,45.5447386 15.1640893,46.028373 C15.428875,46.2251354 15.7388393,46.3203053 16.0464464,46.3203053 C16.4939107,46.3203053 16.9366607,46.1186774 17.2258036,45.7364408 L21.8634821,39.6095615 L21.8634821,44.8612279 C21.8634821,45.6663771 22.5225,46.3203053 23.3359107,46.3203053 C24.1485357,46.3203053 24.8075536,45.6663771 24.8075536,44.8612279 L24.8075536,39.6095615 L29.4458214,45.7364408 C29.7351607,46.1186774 30.177125,46.3203053 30.6243929,46.3203053 C30.9321964,46.3203053 31.2421607,46.2251354 31.50675,46.028373 C32.1575179,45.5447386 32.2887321,44.6302122 31.8013929,43.9862097 L26.2799821,36.6925745 L42.7699643,36.6925745 C43.5825893,36.6925745 44.2416071,36.0386463 44.2416071,35.2336918 L44.2416071,10.2164608 L45.1991964,10.2164608 C46.0118214,10.2164608 46.6710357,9.56253258 46.6710357,8.75757808 L46.6710357,3.94361537 C46.6710357,3.13788238 46.0118214,2.48473264 45.1991964,2.48473264 Z M2.94407143,7.29869534 L43.7267679,7.29869534 L43.7267679,5.40249811 L2.94407143,5.40249811 L2.94407143,7.29869534 Z M5.37330357,33.774809 L41.2975357,33.774809 L41.2975357,10.2164608 L5.37330357,10.2164608 L5.37330357,33.774809 Z" id="Fill-1"></path>
                            <path d="M11.3301854,21.9408196 C10.534268,21.9408196 9.88942308,21.3514774 9.88942308,20.6244582 C9.88942308,19.8972634 10.534268,19.3079212 11.3301854,19.3079212 L32.7234681,19.3079212 C33.5184244,19.3079212 34.1634615,19.8972634 34.1634615,20.6244582 C34.1634615,21.3514774 33.5184244,21.9408196 32.7234681,21.9408196 L11.3301854,21.9408196 Z M1.7,4.25 L44.2,4.25 L44.2,7.65 L1.7,7.65 L1.7,4.25 Z" id="Fill-4"></path>
                            <path d="M11.4163535,16.6750229 L16.4546536,16.6750229 C17.2973579,16.6750229 17.9807692,16.0858171 17.9807692,15.3585737 C17.9807692,14.631506 17.2973579,14.0421245 16.4546536,14.0421245 L11.4163535,14.0421245 C10.5728344,14.0421245 9.88942308,14.631506 9.88942308,15.3585737 C9.88942308,16.0858171 10.5728344,16.6750229 11.4163535,16.6750229 Z" id="Fill-5"></path>
                            <path d="M11.4006052,26.3289835 L26.3598166,26.3289835 C27.1938294,26.3289835 27.8701923,25.7390752 27.8701923,25.0125343 C27.8701923,24.285291 27.1938294,23.6960852 26.3598166,23.6960852 L11.4006052,23.6960852 C10.5657859,23.6960852 9.88942308,24.285291 9.88942308,25.0125343 C9.88942308,25.7390752 10.5657859,26.3289835 11.4006052,26.3289835 Z" id="Fill-6"></path>
                        </g>
                    </g>
                </g>
            </g>
        </g>
    </g>
</svg>