<?xml version="1.0" encoding="UTF-8"?>
<svg width="100px" height="99px" viewBox="0 0 100 99" version="1.1" xmlns="http://www.w3.org/2000/svg" xmlns:xlink="http://www.w3.org/1999/xlink">
    <!-- Generator: Sketch 52.1 (67048) - http://www.bohemiancoding.com/sketch -->
    <title>Trainings icon</title>
    <desc>Created with Sketch.</desc>
    <g id="About" stroke="none" stroke-width="1" fill="none" fill-rule="evenodd">
        <g id="About-Desktop-HD" transform="translate(-1166.000000, -1444.000000)">
            <g id="WHAT-DO-I-DO" transform="translate(0.000000, 860.000000)">
                <g id="Trainings" transform="translate(1059.000000, 584.000000)">
                    <g id="Trainings-icon" transform="translate(107.000000, 0.000000)">
                        <ellipse id="Oval" fill="#759BBE" cx="49.5532702" cy="49.4830193" rx="49.5532702" ry="49.4830193"></ellipse>
                        <g transform="translate(22.296393, 25.373134)">
                            <path d="M51.9351186,33.6614561 L50.7329237,33.6614561 L50.7329237,3.60658458 C50.7329237,2.94267247 50.194641,2.40438972 49.5307288,2.40438972 L27.7708516,2.40438972 L27.7708516,1.20219486 C27.7708516,0.538282749 27.2325688,0 26.5686567,0 C25.9047446,0 25.3664619,0.538282749 25.3664619,1.20219486 L25.3664619,2.40438972 L3.60658458,2.40438972 C2.94267247,2.40438972 2.40438972,2.94267247 2.40438972,3.60658458 L2.40438972,33.6614561 L1.20219486,33.6614561 C0.538282749,33.6614561 0,34.1997389 0,34.863651 C0,35.5275631 0.538282749,36.0658458 1.20219486,36.0658458 L25.3664619,36.0658458 L25.3664619,41.5972947 L16.3453419,51.1074074 C15.8885078,51.5893373 15.9084943,52.3501763 16.3904242,52.8068601 C16.871753,53.264145 17.6331931,53.2441585 18.0898769,52.7622286 L25.3664619,45.0911735 L25.3664619,51.9351186 C25.3664619,52.5990307 25.9047446,53.1373134 26.5686567,53.1373134 C27.2325688,53.1373134 27.7708516,52.5990307 27.7708516,51.9351186 L27.7708516,45.0911735 L35.0474365,52.7622286 C35.2833673,53.0116841 35.600897,53.1373134 35.9196289,53.1373134 C36.2167213,53.1373134 36.5142645,53.0274629 36.746739,52.8068601 C37.2286688,52.3501763 37.2486553,51.5893373 36.7913704,51.1074074 L27.7708516,41.5972947 L27.7708516,36.0658458 L51.9351186,36.0658458 C52.5990307,36.0658458 53.1373134,35.5275631 53.1373134,34.863651 C53.1373134,34.1997389 52.5990307,33.6614561 51.9351186,33.6614561 Z M4.80877945,33.6614561 L48.328534,33.6614561 L48.328534,4.80877945 L4.80877945,4.80877945 L4.80877945,33.6614561 Z" id="projector-screen" fill="#FFFFFF"></path>
                            <path d="M11.1940299,12.6865672 L30.5970149,12.6865672" id="Line-4" stroke="#FFFFFF" stroke-linecap="square"></path>
                            <path d="M11.1940299,16.6679104 L30.5970149,16.6679104" id="Line-4-Copy" stroke="#FFFFFF" stroke-linecap="square"></path>
                            <path d="M11.1940299,21.1455224 L30.5970149,21.1455224" id="Line-4-Copy-2" stroke="#FFFFFF" stroke-linecap="square"></path>
                        </g>
                    </g>
                </g>
            </g>
        </g>
    </g>
</svg>