<?xml version="1.0" encoding="UTF-8"?>
<svg width="19px" height="19px" viewBox="0 0 19 19" version="1.1" xmlns="http://www.w3.org/2000/svg" xmlns:xlink="http://www.w3.org/1999/xlink">
    <!-- Generator: Sketch 46.2 (44496) - http://www.bohemiancoding.com/sketch -->
    <title>x@3x</title>
    <desc>Created with Sketch.</desc>
    <defs></defs>
    <g id="Page-1" stroke="none" stroke-width="1" fill="none" fill-rule="evenodd">
        <g id="Mobile-Menu" transform="translate(-285.000000, -21.000000)" fill="#FFFFFF">
            <g id="MENU">
                <path d="M285.258,22.52725 C284.914,22.18325 284.914,21.61325 285.258,21.25725 C285.613,20.91425 286.172,20.91425 286.527,21.25725 L294.145,28.88625 L301.777,21.25725 C302.121,20.91425 302.691,20.91425 303.035,21.25725 C303.387,21.61325 303.387,22.18325 303.035,22.52725 L295.414,30.14425 L303.035,37.77725 C303.387,38.12125 303.387,38.69125 303.035,39.04625 C302.691,39.39025 302.117,39.39025 301.777,39.04625 L294.145,31.41425 L286.527,39.04625 C286.172,39.39025 285.613,39.39025 285.258,39.04625 C284.914,38.69125 284.914,38.12125 285.258,37.77725 L292.875,30.14425 L285.258,22.52725 Z" id="x"></path>
            </g>
        </g>
    </g>
</svg>